<svg version="1.0" xmlns="http://www.w3.org/2000/svg" width="140" height="140" viewBox="0 0 140 140">
    <g transform="translate(-45, 140) scale(0.100000,-0.100000)" fill="#ea5906" stroke="none">
        <path d="M1130 1384 c-157 -34 -302 -143 -368 -276 -49 -100 -65 -189 -60
        -338 l5 -125 -19 43 c-33 74 -50 179 -43 258 8 87 51 215 93 278 17 25 27 46
        23 46 -5 0 -38 -28 -73 -62 -104 -101 -148 -218 -148 -394 0 -100 20 -208 55
        -298 19 -48 14 -56 -13 -19 -35 50 -65 116 -88 193 l-23 75 0 -71 c-2 -188 99
        -398 251 -523 138 -112 285 -165 463 -165 131 -1 204 16 325 76 111 54 227
        168 284 278 l39 75 -44 -37 c-176 -149 -393 -179 -597 -81 -77 37 -190 150
        -228 228 -26 55 -29 69 -29 165 0 97 2 110 31 170 61 127 146 193 248 193 93
        0 187 -61 227 -148 22 -48 25 -132 5 -179 -21 -51 -80 -104 -134 -120 l-47
        -15 56 0 c76 -1 155 39 182 91 29 58 32 141 8 218 l-20 65 24 -30 c53 -65 71
        -196 40 -285 -8 -24 -13 -45 -11 -47 8 -9 55 64 70 110 35 105 14 225 -60 332
        l-44 66 30 -16 c79 -41 153 -146 174 -246 l13 -63 11 33 c26 75 7 184 -51 294
        -58 110 -209 219 -348 252 -77 18 -124 18 -209 -1z"/>
    </g>
</svg>
